<mxfile host="app.diagrams.net" modified="2024-04-10T08:06:20.254Z" agent="Mozilla/5.0 (Windows NT 10.0; Win64; x64) AppleWebKit/537.36 (KHTML, like Gecko) Chrome/123.0.0.0 Safari/537.36" etag="NxXFCs5eMwWNln-IzjPf" version="24.2.3" type="device">
  <diagram name="Page-1" id="ny3H0qC4jmtav3zFIihQ">
    <mxGraphModel dx="1173" dy="390" grid="0" gridSize="10" guides="1" tooltips="1" connect="1" arrows="1" fold="1" page="0" pageScale="1" pageWidth="850" pageHeight="1100" math="0" shadow="0">
      <root>
        <mxCell id="0" />
        <mxCell id="1" parent="0" />
        <mxCell id="k-ubF6k-BrLq1FWA_Osc-2" value="Student" style="swimlane;fontStyle=1;align=center;verticalAlign=top;childLayout=stackLayout;horizontal=1;startSize=26;horizontalStack=0;resizeParent=1;resizeParentMax=0;resizeLast=0;collapsible=1;marginBottom=0;whiteSpace=wrap;html=1;" parent="1" vertex="1">
          <mxGeometry x="-30" y="170" width="160" height="176" as="geometry" />
        </mxCell>
        <mxCell id="k-ubF6k-BrLq1FWA_Osc-3" value="-id: str&lt;div&gt;&lt;br&gt;&lt;/div&gt;" style="text;strokeColor=none;fillColor=none;align=left;verticalAlign=top;spacingLeft=4;spacingRight=4;overflow=hidden;rotatable=0;points=[[0,0.5],[1,0.5]];portConstraint=eastwest;whiteSpace=wrap;html=1;" parent="k-ubF6k-BrLq1FWA_Osc-2" vertex="1">
          <mxGeometry y="26" width="160" height="26" as="geometry" />
        </mxCell>
        <mxCell id="k-ubF6k-BrLq1FWA_Osc-6" value="-name: str" style="text;strokeColor=none;fillColor=none;align=left;verticalAlign=top;spacingLeft=4;spacingRight=4;overflow=hidden;rotatable=0;points=[[0,0.5],[1,0.5]];portConstraint=eastwest;whiteSpace=wrap;html=1;" parent="k-ubF6k-BrLq1FWA_Osc-2" vertex="1">
          <mxGeometry y="52" width="160" height="26" as="geometry" />
        </mxCell>
        <mxCell id="k-ubF6k-BrLq1FWA_Osc-4" value="" style="line;strokeWidth=1;fillColor=none;align=left;verticalAlign=middle;spacingTop=-1;spacingLeft=3;spacingRight=3;rotatable=0;labelPosition=right;points=[];portConstraint=eastwest;strokeColor=inherit;" parent="k-ubF6k-BrLq1FWA_Osc-2" vertex="1">
          <mxGeometry y="78" width="160" height="8" as="geometry" />
        </mxCell>
        <mxCell id="k-ubF6k-BrLq1FWA_Osc-7" value="+__init__(self, student-id: int, name: str)" style="text;strokeColor=none;fillColor=none;align=left;verticalAlign=top;spacingLeft=4;spacingRight=4;overflow=hidden;rotatable=0;points=[[0,0.5],[1,0.5]];portConstraint=eastwest;whiteSpace=wrap;html=1;" parent="k-ubF6k-BrLq1FWA_Osc-2" vertex="1">
          <mxGeometry y="86" width="160" height="37" as="geometry" />
        </mxCell>
        <mxCell id="k-ubF6k-BrLq1FWA_Osc-9" value="+id(): str" style="text;strokeColor=none;fillColor=none;align=left;verticalAlign=top;spacingLeft=4;spacingRight=4;overflow=hidden;rotatable=0;points=[[0,0.5],[1,0.5]];portConstraint=eastwest;whiteSpace=wrap;html=1;" parent="k-ubF6k-BrLq1FWA_Osc-2" vertex="1">
          <mxGeometry y="123" width="160" height="27" as="geometry" />
        </mxCell>
        <mxCell id="k-ubF6k-BrLq1FWA_Osc-8" value="+name(): str" style="text;strokeColor=none;fillColor=none;align=left;verticalAlign=top;spacingLeft=4;spacingRight=4;overflow=hidden;rotatable=0;points=[[0,0.5],[1,0.5]];portConstraint=eastwest;whiteSpace=wrap;html=1;" parent="k-ubF6k-BrLq1FWA_Osc-2" vertex="1">
          <mxGeometry y="150" width="160" height="26" as="geometry" />
        </mxCell>
        <mxCell id="k-ubF6k-BrLq1FWA_Osc-11" style="edgeStyle=none;curved=1;rounded=0;orthogonalLoop=1;jettySize=auto;html=1;fontSize=12;startSize=8;endSize=8;" parent="1" edge="1">
          <mxGeometry relative="1" as="geometry">
            <mxPoint x="49.5" y="417" as="targetPoint" />
            <mxPoint x="49.5" y="346" as="sourcePoint" />
          </mxGeometry>
        </mxCell>
        <mxCell id="k-ubF6k-BrLq1FWA_Osc-16" value="StudentDirectory" style="swimlane;fontStyle=1;align=center;verticalAlign=top;childLayout=stackLayout;horizontal=1;startSize=26;horizontalStack=0;resizeParent=1;resizeParentMax=0;resizeLast=0;collapsible=1;marginBottom=0;whiteSpace=wrap;html=1;" parent="1" vertex="1">
          <mxGeometry x="-27" y="420" width="160" height="163" as="geometry" />
        </mxCell>
        <mxCell id="k-ubF6k-BrLq1FWA_Osc-17" value="&lt;div&gt;-students: dict&lt;/div&gt;" style="text;strokeColor=none;fillColor=none;align=left;verticalAlign=top;spacingLeft=4;spacingRight=4;overflow=hidden;rotatable=0;points=[[0,0.5],[1,0.5]];portConstraint=eastwest;whiteSpace=wrap;html=1;" parent="k-ubF6k-BrLq1FWA_Osc-16" vertex="1">
          <mxGeometry y="26" width="160" height="26" as="geometry" />
        </mxCell>
        <mxCell id="k-ubF6k-BrLq1FWA_Osc-19" value="" style="line;strokeWidth=1;fillColor=none;align=left;verticalAlign=middle;spacingTop=-1;spacingLeft=3;spacingRight=3;rotatable=0;labelPosition=right;points=[];portConstraint=eastwest;strokeColor=inherit;" parent="k-ubF6k-BrLq1FWA_Osc-16" vertex="1">
          <mxGeometry y="52" width="160" height="8" as="geometry" />
        </mxCell>
        <mxCell id="k-ubF6k-BrLq1FWA_Osc-20" value="+__init__()" style="text;strokeColor=none;fillColor=none;align=left;verticalAlign=top;spacingLeft=4;spacingRight=4;overflow=hidden;rotatable=0;points=[[0,0.5],[1,0.5]];portConstraint=eastwest;whiteSpace=wrap;html=1;" parent="k-ubF6k-BrLq1FWA_Osc-16" vertex="1">
          <mxGeometry y="60" width="160" height="27" as="geometry" />
        </mxCell>
        <mxCell id="k-ubF6k-BrLq1FWA_Osc-21" value="+add_student(student_id: str, name: str)" style="text;strokeColor=none;fillColor=none;align=left;verticalAlign=top;spacingLeft=4;spacingRight=4;overflow=hidden;rotatable=0;points=[[0,0.5],[1,0.5]];portConstraint=eastwest;whiteSpace=wrap;html=1;" parent="k-ubF6k-BrLq1FWA_Osc-16" vertex="1">
          <mxGeometry y="87" width="160" height="39" as="geometry" />
        </mxCell>
        <mxCell id="k-ubF6k-BrLq1FWA_Osc-22" value="+search_student(query: str): str" style="text;strokeColor=none;fillColor=none;align=left;verticalAlign=top;spacingLeft=4;spacingRight=4;overflow=hidden;rotatable=0;points=[[0,0.5],[1,0.5]];portConstraint=eastwest;whiteSpace=wrap;html=1;" parent="k-ubF6k-BrLq1FWA_Osc-16" vertex="1">
          <mxGeometry y="126" width="160" height="37" as="geometry" />
        </mxCell>
        <mxCell id="k-ubF6k-BrLq1FWA_Osc-24" style="edgeStyle=none;curved=1;rounded=0;orthogonalLoop=1;jettySize=auto;html=1;fontSize=12;startSize=8;endSize=8;" parent="1" edge="1">
          <mxGeometry relative="1" as="geometry">
            <mxPoint x="49" y="667" as="targetPoint" />
            <mxPoint x="48.545824175824116" y="586" as="sourcePoint" />
          </mxGeometry>
        </mxCell>
        <mxCell id="k-ubF6k-BrLq1FWA_Osc-25" value="Student" style="swimlane;fontStyle=1;align=center;verticalAlign=top;childLayout=stackLayout;horizontal=1;startSize=26;horizontalStack=0;resizeParent=1;resizeParentMax=0;resizeLast=0;collapsible=1;marginBottom=0;whiteSpace=wrap;html=1;" parent="1" vertex="1">
          <mxGeometry x="-24" y="667" width="160" height="78" as="geometry" />
        </mxCell>
        <mxCell id="k-ubF6k-BrLq1FWA_Osc-28" value="+id&lt;div&gt;&lt;br&gt;&lt;/div&gt;" style="text;strokeColor=none;fillColor=none;align=left;verticalAlign=top;spacingLeft=4;spacingRight=4;overflow=hidden;rotatable=0;points=[[0,0.5],[1,0.5]];portConstraint=eastwest;whiteSpace=wrap;html=1;" parent="k-ubF6k-BrLq1FWA_Osc-25" vertex="1">
          <mxGeometry y="26" width="160" height="26" as="geometry" />
        </mxCell>
        <mxCell id="k-ubF6k-BrLq1FWA_Osc-29" value="&lt;div&gt;+name&lt;/div&gt;" style="text;strokeColor=none;fillColor=none;align=left;verticalAlign=top;spacingLeft=4;spacingRight=4;overflow=hidden;rotatable=0;points=[[0,0.5],[1,0.5]];portConstraint=eastwest;whiteSpace=wrap;html=1;" parent="k-ubF6k-BrLq1FWA_Osc-25" vertex="1">
          <mxGeometry y="52" width="160" height="26" as="geometry" />
        </mxCell>
        <mxCell id="PIT0peuxg-XdD7rZxO7o-6" value="Course" style="swimlane;fontStyle=1;align=center;verticalAlign=top;childLayout=stackLayout;horizontal=1;startSize=26;horizontalStack=0;resizeParent=1;resizeParentMax=0;resizeLast=0;collapsible=1;marginBottom=0;whiteSpace=wrap;html=1;" vertex="1" parent="1">
          <mxGeometry x="-430" y="168" width="161" height="342" as="geometry" />
        </mxCell>
        <mxCell id="PIT0peuxg-XdD7rZxO7o-7" value="-id: str&lt;div&gt;&lt;br&gt;&lt;/div&gt;" style="text;strokeColor=none;fillColor=none;align=left;verticalAlign=top;spacingLeft=4;spacingRight=4;overflow=hidden;rotatable=0;points=[[0,0.5],[1,0.5]];portConstraint=eastwest;whiteSpace=wrap;html=1;" vertex="1" parent="PIT0peuxg-XdD7rZxO7o-6">
          <mxGeometry y="26" width="161" height="26" as="geometry" />
        </mxCell>
        <mxCell id="PIT0peuxg-XdD7rZxO7o-8" value="-name: str&lt;div&gt;&lt;br&gt;&lt;/div&gt;&lt;div&gt;-start_time: str&lt;/div&gt;&lt;div&gt;&lt;br&gt;&lt;/div&gt;&lt;div&gt;-end_time: str&lt;/div&gt;" style="text;strokeColor=none;fillColor=none;align=left;verticalAlign=top;spacingLeft=4;spacingRight=4;overflow=hidden;rotatable=0;points=[[0,0.5],[1,0.5]];portConstraint=eastwest;whiteSpace=wrap;html=1;" vertex="1" parent="PIT0peuxg-XdD7rZxO7o-6">
          <mxGeometry y="52" width="161" height="90" as="geometry" />
        </mxCell>
        <mxCell id="PIT0peuxg-XdD7rZxO7o-9" value="" style="line;strokeWidth=1;fillColor=none;align=left;verticalAlign=middle;spacingTop=-1;spacingLeft=3;spacingRight=3;rotatable=0;labelPosition=right;points=[];portConstraint=eastwest;strokeColor=inherit;" vertex="1" parent="PIT0peuxg-XdD7rZxO7o-6">
          <mxGeometry y="142" width="161" height="8" as="geometry" />
        </mxCell>
        <mxCell id="PIT0peuxg-XdD7rZxO7o-11" value="&lt;div&gt;+ __init__(course_id: str, name: str, start_time: str, end_time: str)&lt;/div&gt;&lt;div&gt;&lt;br&gt;&lt;/div&gt;&lt;div&gt;+ id(): str&lt;/div&gt;&lt;div&gt;&lt;span style=&quot;background-color: initial;&quot;&gt;&lt;br&gt;&lt;/span&gt;&lt;/div&gt;&lt;div&gt;&lt;span style=&quot;background-color: initial;&quot;&gt;+ name(): str&lt;/span&gt;&lt;/div&gt;&lt;div&gt;&lt;span style=&quot;background-color: initial;&quot;&gt;&lt;br&gt;&lt;/span&gt;&lt;/div&gt;&lt;div&gt;+ start_time(): str&lt;/div&gt;&lt;div&gt;&lt;br&gt;&lt;/div&gt;&lt;div&gt;+ end_time(): str&lt;/div&gt;" style="text;strokeColor=none;fillColor=none;align=left;verticalAlign=top;spacingLeft=4;spacingRight=4;overflow=hidden;rotatable=0;points=[[0,0.5],[1,0.5]];portConstraint=eastwest;whiteSpace=wrap;html=1;" vertex="1" parent="PIT0peuxg-XdD7rZxO7o-6">
          <mxGeometry y="150" width="161" height="192" as="geometry" />
        </mxCell>
        <mxCell id="PIT0peuxg-XdD7rZxO7o-14" value="Course Directory" style="swimlane;fontStyle=1;align=center;verticalAlign=top;childLayout=stackLayout;horizontal=1;startSize=26;horizontalStack=0;resizeParent=1;resizeParentMax=0;resizeLast=0;collapsible=1;marginBottom=0;whiteSpace=wrap;html=1;" vertex="1" parent="1">
          <mxGeometry x="-429.5" y="630" width="160" height="193" as="geometry" />
        </mxCell>
        <mxCell id="PIT0peuxg-XdD7rZxO7o-15" value="&lt;div&gt;-courses: dict&lt;/div&gt;" style="text;strokeColor=none;fillColor=none;align=left;verticalAlign=top;spacingLeft=4;spacingRight=4;overflow=hidden;rotatable=0;points=[[0,0.5],[1,0.5]];portConstraint=eastwest;whiteSpace=wrap;html=1;" vertex="1" parent="PIT0peuxg-XdD7rZxO7o-14">
          <mxGeometry y="26" width="160" height="26" as="geometry" />
        </mxCell>
        <mxCell id="PIT0peuxg-XdD7rZxO7o-16" value="" style="line;strokeWidth=1;fillColor=none;align=left;verticalAlign=middle;spacingTop=-1;spacingLeft=3;spacingRight=3;rotatable=0;labelPosition=right;points=[];portConstraint=eastwest;strokeColor=inherit;" vertex="1" parent="PIT0peuxg-XdD7rZxO7o-14">
          <mxGeometry y="52" width="160" height="8" as="geometry" />
        </mxCell>
        <mxCell id="PIT0peuxg-XdD7rZxO7o-17" value="+__init__()" style="text;strokeColor=none;fillColor=none;align=left;verticalAlign=top;spacingLeft=4;spacingRight=4;overflow=hidden;rotatable=0;points=[[0,0.5],[1,0.5]];portConstraint=eastwest;whiteSpace=wrap;html=1;" vertex="1" parent="PIT0peuxg-XdD7rZxO7o-14">
          <mxGeometry y="60" width="160" height="27" as="geometry" />
        </mxCell>
        <mxCell id="PIT0peuxg-XdD7rZxO7o-18" value="&lt;div&gt;+ add_course(course_id: str, name: str, start_time: str, end_time: str): void&lt;/div&gt;&lt;div&gt;&lt;br&gt;&lt;/div&gt;&lt;div&gt;+ search_course(query: str): str&lt;/div&gt;" style="text;strokeColor=none;fillColor=none;align=left;verticalAlign=top;spacingLeft=4;spacingRight=4;overflow=hidden;rotatable=0;points=[[0,0.5],[1,0.5]];portConstraint=eastwest;whiteSpace=wrap;html=1;" vertex="1" parent="PIT0peuxg-XdD7rZxO7o-14">
          <mxGeometry y="87" width="160" height="106" as="geometry" />
        </mxCell>
        <mxCell id="PIT0peuxg-XdD7rZxO7o-20" value="1" style="endArrow=diamondThin;endFill=1;endSize=24;html=1;rounded=0;entryX=0.5;entryY=0;entryDx=0;entryDy=0;" edge="1" parent="1" source="PIT0peuxg-XdD7rZxO7o-11" target="PIT0peuxg-XdD7rZxO7o-14">
          <mxGeometry x="-0.6833" width="160" relative="1" as="geometry">
            <mxPoint x="-502" y="552" as="sourcePoint" />
            <mxPoint x="-342" y="552" as="targetPoint" />
            <mxPoint as="offset" />
          </mxGeometry>
        </mxCell>
      </root>
    </mxGraphModel>
  </diagram>
</mxfile>
